<?xml version="1.0" encoding="UTF-8"?>
<!DOCTYPE svg PUBLIC "-//W3C//DTD SVG 1.1//EN" "http://www.w3.org/Graphics/SVG/1.1/DTD/svg11.dtd">
<!-- Creator: CorelDRAW X7 -->
<svg xmlns="http://www.w3.org/2000/svg" xml:space="preserve" width="5.0798mm" height="55.9646mm" version="1.1" style="shape-rendering:geometricPrecision; text-rendering:geometricPrecision; image-rendering:optimizeQuality; fill-rule:evenodd; clip-rule:evenodd"
viewBox="0 0 508 5596"
 xmlns:xlink="http://www.w3.org/1999/xlink">
 <defs>
  <style type="text/css">
   <![CDATA[
    .fil0 {fill:black;fill-opacity:0.200000}
   ]]>
  </style>
 </defs>
 <g id="Capa_x0020_1">
  <metadata id="CorelCorpID_0Corel-Layer"/>
  <path class="fil0" d="M206 0l1 6 3 -6 11 0c1,2 3,3 5,4l-1 17c-1,2 -7,-6 -7,18l5 8c18,-21 12,12 14,-23 2,-23 0,-12 0,-12 2,-7 4,-10 5,-12l19 0c1,3 1,2 1,0l5 0 1 35 15 -3c0,1 -1,3 -1,3 -3,21 3,22 0,47 -3,25 5,-18 -1,5 -1,6 -3,8 -5,31l-1 18c-1,-13 -4,-19 -4,-18 0,0 -1,-1 -1,-2 1,-19 0,-21 3,-25 0,0 2,1 2,0l-1 -41c-8,11 0,-6 -4,25l-6 29 5 33c1,18 0,13 2,34 6,52 -3,74 7,89 6,11 0,-4 3,-2 0,31 1,26 3,52 1,15 -1,3 1,13 3,-15 2,-20 3,-27l8 -14c-1,-28 -3,-170 2,-180 3,5 3,28 3,44l2 2c1,0 1,1 1,1 8,10 2,49 2,69 -2,3 -1,4 -2,-9 -2,8 -5,21 -5,32 0,23 5,22 9,13 0,17 1,35 0,52l-2 33c4,-2 -2,3 2,-2 0,0 1,-1 1,-1 0,-1 1,-1 1,-2 3,-5 2,1 1,-4 0,42 3,52 -1,93 -5,47 4,87 0,130 -3,31 -3,43 -3,62 11,-1 18,-3 26,8 14,20 5,-7 23,24 7,11 19,8 30,9 26,0 52,-9 22,9 -43,26 -74,-37 -73,2 1,15 -21,32 -21,-5 -3,-1 -6,0 -8,1 -1,4 -1,8 0,12 -1,-3 -1,-7 -1,-12 -10,5 -5,24 -12,38 -1,12 -1,23 -2,32 -7,67 -4,0 -7,117 -1,29 0,46 0,64 0,97 4,129 0,256 -1,39 -4,5 -2,47 3,71 -7,208 0,257 3,-26 4,-14 2,-55 0,-20 -2,-39 1,-55 1,31 1,73 0,105 -2,34 0,69 0,104 -4,4 3,-14 -7,0 0,4 0,7 1,10 3,3 7,6 9,9 1,-14 1,-28 2,-43l3 19c0,10 1,21 1,33 14,25 -11,40 30,73 16,13 -23,26 -33,35l0 1 0 5c2,1 5,2 10,3 0,25 0,14 -10,0 0,14 0,31 0,45 -1,-12 -2,-31 -2,-48 -1,-1 -2,-2 -3,-3l-2 33c0,-11 0,-23 -1,-36 -1,-1 -2,-2 -4,-3l0 9c0,16 1,1 -1,7 -5,13 -1,-10 -4,9 -1,3 -2,13 -2,16l0 -45 -2 -1c-7,73 1,148 5,223 -1,-2 -2,-18 -1,-25 1,-42 0,16 2,-18 -3,-31 -1,-20 -1,-47l4 -44c1,34 -1,41 -1,68 0,45 2,96 1,142 0,28 -2,28 -3,59l2 0c6,7 -2,-22 1,2 4,26 -8,104 8,134l4 -195c2,29 2,75 0,100l4 71c3,57 -2,79 -5,92 -5,20 -4,36 -4,64l3 -24 1 29c0,-1 0,-3 0,-4 4,-26 5,35 2,52 -3,-13 -3,-35 -6,-44 1,27 2,16 1,31 0,7 0,2 -1,8 0,1 0,2 0,2l-4 30c-5,28 0,24 1,44 0,11 0,28 0,43 3,-8 3,-24 5,-34 1,26 -4,45 2,70 4,-27 2,-48 2,-84l2 65c0,2 0,4 -1,6 -2,28 -4,25 -1,33 -2,51 0,56 1,92 1,13 0,30 0,48 5,5 13,11 24,16 6,3 17,10 25,10 6,-1 1,18 -11,19 -10,2 16,26 16,32 0,2 -18,15 -20,-4 0,-2 -10,-8 -10,2 0,36 18,52 -10,62 -5,2 -10,5 -15,10 0,25 -2,64 -1,78 -1,-29 0,-45 -2,-75 -2,3 -3,5 -5,8 0,24 1,49 1,70 -1,32 -2,56 -2,89 0,37 -1,34 -2,69 0,39 -2,66 4,99 0,2 1,13 2,26 2,-12 4,-33 3,-49 3,33 4,86 -2,108l-3 7c1,10 2,16 2,26 -1,20 -6,23 -4,54l-3 22c0,1 0,-1 0,-1 5,69 -3,64 0,94 3,29 7,59 7,95 0,21 -1,43 -1,64 1,7 1,20 1,21l2 135c8,7 -6,0 2,-1 5,-1 -4,-11 2,1l1 16c7,-1 13,-1 14,-1 1,17 19,-5 19,-3 2,36 18,44 21,53 9,26 4,-3 38,5 95,20 41,-27 66,-24 11,68 39,5 52,19 11,12 1,4 -14,22 -3,5 -113,7 -120,7 -29,0 -14,16 -29,9 -37,-16 -33,3 -45,16 2,17 -1,36 -2,52 -3,27 0,27 2,52 3,40 -4,36 -3,120l0 136c-1,16 3,-5 -1,1 0,0 -1,3 -1,3 -2,1 -1,-2 -3,-15 -1,26 -3,37 -3,65 0,37 2,31 0,71 0,25 0,24 -3,36 1,-21 2,-33 3,-54l-4 -4c0,0 0,0 -1,-1l-5 -7 0 49c-7,15 -8,-8 -8,28 2,6 -4,19 6,4 5,-9 1,-9 1,-10 0,1 0,2 1,2 5,13 4,13 5,28 0,1 1,2 2,3l6 10c1,55 -2,29 0,56 0,1 1,7 2,8 -4,-2 5,-2 -3,1 0,0 -1,0 -1,0l-6 1c2,16 6,30 13,33l1 -35c0,2 1,3 1,6 0,3 0,3 0,5 2,27 3,141 -1,173 0,5 -2,11 -3,16 -1,7 -1,10 -2,16 1,1 3,2 4,4l1 -4c2,8 2,-3 2,7 1,1 3,3 4,5 2,-35 0,-82 1,-109 1,46 0,76 0,110 1,2 2,4 2,5 -1,-13 -1,-26 1,-36 6,-28 -5,2 2,-3l3 0c1,-39 0,-18 -1,-54 0,-14 0,-33 1,-44 6,9 3,80 1,100l-1 28c1,9 1,18 2,27 22,21 108,14 44,49 -22,12 -14,-13 -23,-10 -4,1 -4,35 -11,39 -3,3 -6,5 -10,8 0,43 2,82 0,124 0,17 -2,33 1,41 0,-27 0,-26 -2,-45 -5,15 -3,22 -4,47 1,-24 0,-18 -5,-19 5,50 -4,42 2,92 4,-14 2,-5 3,-27 1,-13 0,-9 1,-24 3,66 -5,97 -5,117 -4,-35 3,-31 -3,-60 -7,-27 3,14 -4,-34l-5 77c-1,26 0,53 -1,79 -3,91 -4,50 -1,147 6,7 -4,-1 2,-1l2 1c0,6 -3,61 -3,71 -1,2 -4,8 -5,8 -4,3 -1,-24 -4,2 0,2 -1,1 -1,2 -4,19 -2,28 -1,56l-4 -25c-4,15 -7,17 -9,35 5,7 4,10 9,1 1,16 0,11 2,23 -2,7 -4,18 -6,28l2 14 -73 0 0 -7c11,3 8,3 12,-7 -5,-7 -12,-7 -18,6l-3 8 -191 0 0 -5597 88 0c1,2 1,5 2,7 3,-3 4,-2 5,-7l28 0c1,16 -2,8 -1,23l13 4c1,-14 1,-15 -2,-27l74 0zm99 615c0,-56 0,-135 -1,-170 -6,17 -2,-6 -5,26l-1 54 -3 -30c-2,50 -1,57 1,93l-2 -8c-5,-26 -6,-63 -9,-94 -2,10 -4,24 -4,40 0,21 1,24 4,34 0,-1 0,-3 0,-4l0 -23c-1,-6 -1,-18 -2,-20 4,12 10,83 11,100l1 3c3,0 7,0 10,-1zm-17 2069c0,-35 0,-68 0,-80 -6,17 -6,44 -5,72 1,2 3,5 5,8zm0 2060c1,-27 1,-57 1,-85 1,-81 1,-71 -4,-75 -1,7 0,5 -1,24 -4,91 0,44 1,96 0,14 -1,25 -1,37 1,1 3,2 4,3zm-33 -4690c5,-6 3,-1 5,-17l1 8c2,5 1,5 6,-6 -4,-18 -6,-28 -12,-24 -7,5 -1,0 -4,7 5,18 3,5 8,16 -4,13 -2,11 -7,22l-4 10c-2,4 -1,1 -3,8 -2,10 -2,15 -4,24 -1,1 -2,5 -2,6l-1 5c-7,32 0,-29 -1,5 0,2 0,2 -1,3 0,-23 0,-30 3,-36 -6,-4 -5,2 -9,14 1,-2 3,1 2,-13 -3,-20 -1,-8 -7,-17 0,54 -2,60 7,72l7 -22c0,-1 1,-3 1,-3l2 -5c0,0 0,0 0,0 0,0 1,0 1,0l6 -16c-2,17 -2,19 -2,31 4,-13 3,-30 4,-51 4,21 2,2 2,35 2,-10 1,-14 5,-19 1,-1 3,-2 4,-4 5,-7 2,-3 4,-7 -4,-3 -4,-10 -7,-18l-3 -5c0,1 -1,-2 -1,-3zm2 222c4,-21 -2,1 4,-17 5,14 0,8 6,24 2,-31 1,-20 -2,-48l-11 7c-2,-33 3,-15 -5,-43l1 54 7 23zm23 4673c-1,20 0,22 2,39l3 18c6,-17 6,-43 7,-72 -8,6 -4,5 -9,12 -1,4 -2,3 -3,3zm-20 158c-3,5 -2,38 -3,50 3,-13 1,14 3,-20 1,28 -2,13 3,18 9,-45 8,-13 8,-56 -4,5 -5,9 -8,10 -10,3 4,-21 -3,-2z"/>
 </g>
</svg>
