<?xml version="1.0" encoding="UTF-8"?>
<!DOCTYPE svg PUBLIC "-//W3C//DTD SVG 1.1//EN" "http://www.w3.org/Graphics/SVG/1.1/DTD/svg11.dtd">
<!-- Creator: CorelDRAW X7 -->
<svg xmlns="http://www.w3.org/2000/svg" xml:space="preserve" width="5.0798mm" height="55.9646mm" version="1.1" style="shape-rendering:geometricPrecision; text-rendering:geometricPrecision; image-rendering:optimizeQuality; fill-rule:evenodd; clip-rule:evenodd"
viewBox="0 0 508 5596"
 xmlns:xlink="http://www.w3.org/1999/xlink">
 <defs>
  <style type="text/css">
   <![CDATA[
    .fil0 {fill:black;fill-opacity:0.200000}
   ]]>
  </style>
 </defs>
 <g id="Capa_x0020_1">
  <metadata id="CorelCorpID_0Corel-Layer"/>
  <path class="fil0" d="M285 5597l-12 0 -23 0 -10 0 -11 0c0,-3 0,-2 0,0l-6 0 -1 -36 -16 3c0,-1 0,-2 1,-3 3,-21 -4,-22 0,-47 4,-24 -6,19 1,-5 2,-6 4,-8 6,-31l0 -17c2,12 5,19 5,18 0,-1 1,0 1,1 -1,19 0,21 -4,25 0,0 -1,0 -2,1l2 40c8,-10 0,6 4,-24l6 -30 -5 -33c-1,-17 0,-13 -2,-34 -7,-52 3,-73 -7,-89 -8,-11 -1,5 -4,2 0,-30 -1,-26 -3,-52 -1,-15 1,-3 -2,-12 -3,15 -1,20 -3,26l-8 14c0,29 3,171 -2,181 -3,-6 -3,-28 -4,-44l-2 -2c0,-1 -1,-1 -1,-2 -8,-9 -2,-49 -2,-69 2,-2 1,-4 2,10 2,-9 6,-22 6,-33 -1,-23 -6,-22 -10,-13 0,-17 -1,-35 -1,-51l3 -34c-5,3 2,-3 -2,3 0,0 -1,0 -1,1 0,0 -1,1 -1,1 -3,6 -2,-1 -1,5 0,-6 0,-11 0,-15 -1,0 -1,0 -1,-1l0 -11 0 0c-3,-5 -5,-19 -13,-25 -8,-7 -22,-6 -26,-13 -16,-29 -14,4 -17,-28 -2,-30 12,-12 12,-7 0,7 12,35 25,3 3,-7 16,0 19,-2l3 -2c3,-44 -6,-82 -1,-123 4,-43 3,-48 3,-90 0,-15 3,-24 1,-31 3,28 0,177 2,230 7,-17 2,6 5,-27l2 -54 3 31c2,-50 1,-57 -1,-94l2 8c5,27 7,64 10,95 2,-11 4,-25 4,-40 0,-21 -1,-24 -4,-34 0,1 0,2 0,3l0 23c0,6 1,19 1,20 -4,-12 -10,-83 -11,-100 -3,-28 0,-89 3,-119 8,-68 5,0 8,-118 0,-28 -1,-45 -1,-64 1,-96 -4,-128 1,-256 1,-39 4,-4 2,-46 -3,-72 7,-209 0,-257 -3,25 -4,14 -3,55 1,19 3,39 -1,54 0,-31 0,-73 1,-105 2,-34 0,-68 0,-104 4,-4 -3,15 7,0 -2,-31 -1,0 -4,-21 -4,-29 2,4 -1,-24 -4,5 -1,-3 -3,10 -4,20 -4,39 -4,60l-4 -20c-2,-35 -4,-98 -2,-130 0,1 0,8 0,9 0,2 0,4 0,6 2,28 2,27 6,39l-2 -66c0,-16 0,-36 0,-52 2,16 2,47 4,69l4 -52c1,38 1,90 4,117l1 -87c1,-15 -1,-1 1,-6 5,-13 1,10 5,-10 0,-2 1,-13 2,-16l0 62c11,-78 1,-159 -3,-239 0,3 1,19 1,25 -2,43 -1,-15 -3,18 4,32 1,20 1,47l-4 44c-1,-33 1,-41 1,-68 1,-45 -2,-95 -1,-141 0,-28 3,-29 4,-60l-3 1c-6,-8 3,21 -1,-2 -2,-12 0,-34 0,-58 -3,-4 -6,-7 -10,-10l-3 129c-1,-29 -2,-76 0,-101l-2 -32c-5,-4 -11,-7 -17,-9 -69,-27 -9,-52 15,-91 1,-15 4,-24 5,-30 6,-20 5,-36 5,-65l-4 25 0 -30c0,2 -1,4 -1,5 -4,26 -5,-36 -1,-53 3,14 2,35 6,45 -1,-27 -2,-16 -2,-32 1,-7 0,-2 2,-8 0,0 0,-1 0,-2l4 -30c5,-28 0,-23 -1,-43 0,-12 0,-28 0,-44 -3,8 -4,25 -6,34 0,-26 5,-44 -2,-69 -4,26 -2,48 -2,83l-2 -65c0,-1 0,-4 1,-5 2,-29 4,-25 2,-33 1,-51 -1,-56 -2,-93 -1,-24 1,-64 2,-92 0,-37 -1,-66 -1,-100 0,-25 3,-66 1,-81 1,30 0,47 2,78 2,26 3,45 3,73 0,35 -3,138 -1,161 10,-29 4,-85 3,-125 0,-22 2,-18 2,-36 2,-40 -3,-108 -2,-153 1,-33 2,-57 2,-90 0,-36 1,-33 2,-69 1,-39 2,-66 -4,-99 -1,-2 -1,-13 -3,-26 -2,12 -4,34 -3,50 -3,-34 -4,-87 3,-109l3 -7c-1,-10 -2,-16 -2,-25 0,-20 6,-23 3,-54l4 -23c0,0 0,1 0,2l0 -4c-25,-10 -55,-23 -81,-16 -15,32 -29,16 -64,24 -94,22 -77,-23 -35,-20 72,5 63,-16 91,-15 29,1 -27,-32 -35,-36 -30,-16 19,-4 20,-3 39,22 23,-26 79,-21 11,1 19,1 26,-1l-1 -3c-3,-28 -8,-58 -7,-95 0,-21 1,-42 0,-63 0,-7 -1,-20 -1,-22l-2 -134c-8,-7 7,-1 -2,0 -6,1 4,12 -2,0 -2,-32 -3,-34 -1,-71 2,-65 -1,-44 -1,-48 -4,-17 0,-36 1,-52 3,-28 0,-28 -2,-53 -3,-40 4,-35 3,-120l0 -136c1,-16 -3,6 1,-1 0,0 1,-3 1,-3 2,-1 1,3 3,16 1,-27 4,-37 4,-65 0,-37 -2,-32 0,-71 -1,-25 -1,-24 2,-37 0,21 -2,33 -2,54l4 4c0,1 0,1 1,1l5 7 0 -48c8,-15 9,8 10,-29 -2,-5 3,-19 -7,-3 -6,9 -1,9 -1,9 0,-1 -1,-1 -1,-2 -5,-12 -5,-12 -6,-27 0,-2 -1,-3 -2,-3l-7 -11c0,-54 2,-29 1,-56 -1,-1 -2,-6 -2,-7 4,2 -6,1 3,-1 0,-1 1,-1 1,-1l6 0c-2,-17 -7,-30 -14,-34l-1 35c0,-1 -1,-2 -1,-5 0,-3 0,-4 -1,-6 -2,-27 -2,-141 2,-172 0,-5 2,-11 3,-17 1,-7 2,-11 3,-18 -1,28 -1,59 -1,88 -1,81 -1,71 5,75 1,-7 0,-4 1,-24 4,-90 0,-43 -1,-96 0,-43 6,-62 2,-142l-4 35c1,-2 4,5 1,-8l-3 0c-2,40 -2,47 -6,75 -2,-12 -2,12 -2,-25 0,0 2,-22 2,-26 -11,18 -6,106 -8,147 -1,-74 1,-105 2,-182 -13,38 1,77 -5,103 -7,28 5,-2 -2,4l-3 -1c-2,39 0,18 1,54 0,14 0,33 -1,44 -7,-9 -3,-80 -2,-100l1 -27c0,-27 -3,-50 -2,-77 2,-57 -2,-106 0,-161 1,-17 3,-33 0,-41 0,28 -1,26 2,45 5,-15 3,-22 4,-47 -1,24 0,18 5,19 -6,-49 5,-41 -2,-92 -4,15 -2,5 -3,28 -1,12 0,8 -1,23 -3,-66 6,-97 6,-116 3,34 -4,31 3,59 7,28 -4,-14 4,35l5 -78c2,-26 0,-53 1,-78 3,-91 4,-50 1,-147 -6,-8 5,0 -2,1l-2 -1c0,-6 3,-61 4,-71 1,-3 4,-8 4,-8 5,-4 2,24 5,-3 0,-2 1,0 1,-1 5,-19 2,-29 1,-56l5 24c4,-15 8,-17 9,-35 -5,-7 -4,-9 -10,-1 0,-16 0,-10 -2,-22 3,-8 5,-19 7,-29l-2 -13 79 0 0 7c-12,-3 -9,-3 -13,6 5,7 13,8 19,-5l4 -8 206 0 0 5597 -39 0 -56 0 -7 0 -31 0 -11 0 -80 0 -4 0zm-29 -108l1 -4 -1 -10c0,1 0,2 0,3 -1,8 0,11 0,11zm2 -14l3 -19 0 0 -8 22c0,1 0,2 0,3l-2 5c-1,0 -1,0 -1,0 0,0 -1,0 -1,0l-6 15c1,-16 2,-19 2,-31 -4,13 -3,30 -5,52 -4,-21 -2,-3 -1,-36 -3,10 -1,15 -6,19 -1,1 -3,3 -5,5 -5,6 -1,2 -3,6 4,3 4,11 7,18l3 6c0,-1 1,2 2,3 -6,6 -4,0 -6,17l-1 -9c-2,-5 -2,-4 -6,6 4,19 6,28 12,24 8,-5 2,0 4,-6 -5,-18 -3,-5 -9,-17 5,-12 4,-10 9,-22l4 -9c1,-5 1,-2 3,-9 2,-9 3,-15 5,-24 0,-1 1,-4 1,-5l2 -6c2,-10 3,-10 3,-8zm-24 -154c-4,21 2,-2 -4,17 -6,-15 -1,-9 -7,-25 -2,31 0,20 2,48l13 -6c1,33 -5,15 4,42l0 -53 -8 -23zm-25 -4674c1,-19 0,-22 -2,-38l-3 -18c-7,16 -7,43 -7,72 8,-6 4,-5 8,-13 2,-3 3,-3 4,-3zm22 -157c3,-6 2,-38 3,-50 -3,12 -2,-15 -3,19 -2,-27 1,-12 -4,-18 -9,45 -8,13 -8,56 4,-4 6,-9 9,-10 11,-3 -4,21 3,3z"/>
 </g>
</svg>
