<?xml version="1.0" encoding="UTF-8"?>
<!DOCTYPE svg PUBLIC "-//W3C//DTD SVG 1.1//EN" "http://www.w3.org/Graphics/SVG/1.1/DTD/svg11.dtd">
<!-- Creator: CorelDRAW X7 -->
<svg xmlns="http://www.w3.org/2000/svg" xml:space="preserve" width="114.131mm" height="3.9792mm" version="1.1" style="shape-rendering:geometricPrecision; text-rendering:geometricPrecision; image-rendering:optimizeQuality; fill-rule:evenodd; clip-rule:evenodd"
viewBox="0 0 11413 398"
 xmlns:xlink="http://www.w3.org/1999/xlink">
 <defs>
  <style type="text/css">
   <![CDATA[
    .fil0 {fill:#CCAC63;fill-opacity:0.701961}
   ]]>
  </style>
 </defs>
 <g id="Capa_x0020_1">
  <metadata id="CorelCorpID_0Corel-Layer"/>
  <path class="fil0" d="M369 82c0,2 -1,4 -3,6 -2,2 -6,4 -8,2 -2,-2 -2,-2 -2,-4 0,-3 2,-6 5,-8l0 -7c7,0 11,0 11,7 3,0 0,3 0,3 -1,1 -2,1 -3,1zm5532 252c0,-2 -2,-2 0,-2l0 2zm-2615 52l-13 0c0,-1 0,-1 1,-1l7 -5c2,0 2,2 4,2 1,1 1,3 1,4zm-144 0l-20 0 0 -1c2,-7 6,-9 10,-11 5,-2 11,-2 16,0l0 2c-1,5 -3,8 -6,10zm141 -71c0,2 2,4 2,6l5 0c0,-4 0,-6 -3,-8l-2 -2c0,2 -2,2 -2,4l0 0zm-122 63c0,0 0,2 2,2 2,0 4,0 7,-4 -3,-2 -5,-4 -7,-2 0,0 -2,2 -2,4zm-11 -16c0,2 0,2 2,2l0 -2c-2,-2 -2,-2 -2,0zm-183 -41l0 2c2,0 2,-2 2,-4l-2 2zm102 -86l0 -2 -2 0 0 2 2 0zm-24 75c0,0 0,4 3,7l4 0c4,0 4,-3 4,-3 4,-7 4,-15 0,-22 0,0 0,-3 -4,-3 0,0 -4,3 -4,7 0,3 0,7 -3,14zm133 -64c4,0 7,3 11,3l4 -3c4,-4 0,-7 -4,-7 -4,0 -7,3 -11,7zm53 86l0 7c4,-4 4,-4 8,-4 0,-3 -4,-3 -4,-7l-4 4zm99 35l-4 0 0 7 4 0 0 -7zm-122 -64c0,4 0,4 4,4 4,-4 4,-4 0,-4l-4 0zm-72 4c-4,0 -4,3 0,3l4 0 -4 -3zm266 76c0,2 4,4 4,2 2,0 2,-2 2,-2l0 -9c-2,0 -4,-2 -4,-2 0,0 -2,2 -2,4l0 7zm-214 -89c-2,0 -5,0 -7,3l0 2c2,2 2,2 5,2 2,0 2,-2 4,-4 0,0 0,-3 -2,-3zm-321 17c2,0 4,2 7,2l2 -2c2,-2 0,-4 -2,-4 -3,0 -5,2 -7,4zm31 49l0 4c2,-2 2,-2 4,-2 0,-2 -2,-2 -2,-4l-2 2zm56 20l-2 0 0 5 2 0 0 -5zm-70 -36c0,2 0,2 3,2 2,-2 2,-2 0,-2l-3 0zm-41 2c-2,0 -2,2 0,2l2 0 -2 -2zm317 10c-4,2 -9,2 -11,4l-9 6c-2,0 -6,0 -6,-4 0,-2 -2,-4 -2,-9 0,-2 2,-4 4,-4 7,0 13,-4 18,-8 2,-2 6,0 8,0l9 10c4,2 7,2 9,-2l0 -2c2,-4 4,-6 8,-6 3,2 5,2 7,2 2,0 4,4 4,6 0,4 -2,7 -4,9l-9 6c-4,2 -8,2 -15,0l-11 -8zm-281 -7c0,2 -5,4 -7,4 -2,0 -4,-2 -7,-2 -8,0 -13,-4 -15,-12 0,0 0,-2 2,-2 0,-2 3,-2 5,0 2,0 4,0 6,2l0 -4c5,-4 5,-4 11,-4l5 18zm0 -20c2,2 0,2 0,2l-3 0c3,0 3,-2 3,-2zm5378 57l-5 0 0 -1c0,-2 2,-4 2,-4 2,0 2,2 2,2 1,1 1,2 1,3zm-761 0l-6 0c0,-1 0,-2 0,-3 0,0 2,0 5,-2l0 2c0,1 0,2 1,3zm-577 0l-20 0c-1,-1 -2,-2 -3,-3 2,0 2,-2 2,-2l0 0c11,0 22,-2 31,-4 2,0 2,2 2,4l0 2c-4,1 -8,2 -12,3zm-762 0l-19 0c-1,-1 -2,-2 -4,-3 0,-2 2,-2 2,-2 11,0 22,-2 31,-4 2,0 2,2 2,4 0,0 0,2 -2,2 -3,1 -6,2 -10,3zm-718 0l-4 0 -1 -1c-3,0 0,-2 0,-2l2 0c1,1 2,2 3,3zm-413 0l-5 0 1 -1 4 0 0 1zm-1953 0l-6 0c-2,-1 -5,-2 -7,-2 4,-4 8,-7 12,-7 3,0 7,3 3,7l-2 2zm4296 -37c0,5 4,5 4,5l5 8 -9 0c-5,0 -5,-4 -5,-4 -5,0 -5,-4 -5,-4 5,0 5,0 10,-5zm-3288 15l4 0 -4 4 0 -4zm1291 -82c-2,0 -4,4 -4,6 0,3 0,5 2,5l2 0c3,-2 5,-2 5,-5l0 -4c0,0 -2,-2 -5,-2l0 0zm179 -8c-2,0 -6,2 -6,6 0,0 0,2 2,2 2,2 7,0 7,-4 2,-2 0,-4 -3,-4zm-157 66c-2,0 -4,0 -4,2 0,2 2,4 4,4 2,0 5,-2 2,-4 0,-2 0,-2 -2,-2zm-11 -11c3,-2 3,-4 3,-4l-3 -2c-2,0 -4,2 -4,4 2,0 2,0 4,2zm64 33c0,2 0,4 2,6l0 -6c0,-2 0,-2 -2,-2l0 2zm2 -31c0,3 0,3 2,3 0,2 2,0 2,0l0 -3c-2,-2 -4,-2 -4,0zm207 13c0,0 0,-2 -2,-2 0,0 -2,2 0,2l2 0zm-266 -74l-2 0 0 2 2 0 0 -2zm-461 72c0,0 0,2 3,2 0,0 0,-2 -3,-2zm1500 -60c4,0 6,0 6,-4 2,0 0,-2 0,-2 -4,-2 -6,0 -6,2l0 4zm-98 82c0,0 0,2 2,2l0 -4c-2,-2 -2,0 -2,2zm-341 2l0 2 2 -2 -2 0zm1647 -104c0,-2 -1,-4 -4,-6 -2,-2 -6,-4 -8,-2 -2,2 -2,2 -2,4 0,3 2,6 5,8l0 7c8,0 12,0 12,-7 4,0 0,-4 0,-4 -1,0 -2,0 -3,0zm-95 102c0,2 4,4 4,2 2,0 2,-2 2,-2l0 -8c-2,0 -4,-2 -4,-2 0,0 -2,2 -2,4l0 6zm113 -16c-4,2 -4,4 -4,8l0 2 2 0 7 -8 0 -2 -5 0zm-327 -72c-2,0 -3,0 -5,1 -1,0 -2,0 -3,0 -4,-4 -8,0 -11,7 0,7 3,11 7,11 8,0 12,-4 15,-11 0,-2 0,-3 -2,-5 0,0 1,0 1,-1 0,0 0,-2 -2,-2zm426 64c1,-1 -1,-2 -1,-2 -1,0 -1,0 -2,1 -2,0 -3,1 -3,3l0 4c4,0 6,0 6,-4 2,0 0,-2 0,-2l0 0zm183 4c2,-2 2,-2 2,-4 -2,0 -2,2 -2,2l0 2zm-5 22c-2,0 -2,2 -2,2l2 -2zm-1001 -37c0,0 0,2 2,5l2 0c2,0 2,-3 2,-3 2,-4 2,-8 0,-12 0,0 0,-2 -2,-2 0,0 -2,2 -2,4 0,2 0,4 -2,8zm76 -36c2,0 4,2 7,2l2 -2c2,-2 0,-5 -2,-5 -3,0 -5,3 -7,5zm31 49l0 4c2,-2 2,-2 4,-2 0,-2 -2,-2 -2,-4l-2 2zm56 20l-2 0 0 4 2 0 0 -4zm-69 -37c0,2 0,2 2,2 2,-2 2,-2 0,-2l-2 0zm-42 2c-2,0 -2,2 0,2l2 0 -2 -2zm1759 33c0,2 2,4 2,6l5 0c0,-4 0,-6 -3,-8l-2 -2c0,2 -2,2 -2,4l0 0zm-316 6l0 2c2,0 2,-2 2,-4l-2 2zm102 -86l0 -2 -2 0 0 2 2 0zm-4552 69c0,-3 -4,-3 0,-3l0 3zm237 -15c4,7 8,10 15,14l0 11c-11,3 -11,-9 -19,0 0,4 -8,4 -12,4l-15 0c0,-2 11,-3 17,-6 10,-4 2,-7 -3,-8 -5,-1 -10,-3 -9,-8 3,-13 5,-7 26,-4l0 -3zm-253 -131c0,-4 8,0 12,0l11 11 4 5c0,0 2,3 -1,7 -4,3 -13,-5 -13,-5 -11,-10 -9,0 -13,-11l0 -7zm57 3l0 4c0,0 0,4 -3,4l-4 0c0,-4 0,-8 4,-8l3 0zm-338 104c0,-4 0,-7 4,-4 0,4 0,4 -4,4zm342 -57l0 -4c4,0 4,0 4,4l-4 0zm1765 20c-3,0 -7,7 -7,11 0,4 0,7 4,7l3 0c4,-3 8,-3 8,-7l0 -7c0,0 -4,-4 -8,-4l0 0zm38 100c-3,0 -7,0 -7,4 0,3 4,7 7,7 4,0 8,-4 4,-7 0,-4 0,-4 -4,-4zm-19 -18c4,-3 4,-7 4,-7l-4 -3c-3,0 -7,3 -7,7 4,0 4,0 7,3zm115 4c0,4 0,4 3,4 0,3 4,0 4,0l0 -4c-4,-4 -7,-4 -7,0zm361 21c0,0 0,-3 -4,-3 0,0 -4,3 0,3l4 0zm-464 -128l-4 0 0 3 4 0 0 -3zm-803 125c0,0 0,3 4,3 0,0 0,-3 -4,-3zm-2956 -29c0,7 -3,14 0,18 4,3 4,3 8,3l4 0c4,-7 7,-14 7,-21 4,-7 4,-11 4,-18 0,-7 -4,-11 -4,-18 0,-4 -3,-7 -7,-4 0,0 -4,0 -4,4l-8 18 0 18zm-80 -32c0,7 4,14 12,17l4 0c3,0 3,-3 3,-3 4,-11 -3,-18 -11,-22 0,-3 -4,0 -4,0 -4,0 -4,4 -4,8zm5213 29c-4,-4 -4,-4 -4,-8l0 -3c-4,3 -8,3 -8,3 0,8 -4,15 -4,18 0,8 4,11 4,8 4,0 8,0 8,-4 0,-4 0,-11 4,-14zm-5038 6c8,-3 12,-3 19,-3 4,0 4,-4 4,-4 4,-3 0,-7 -4,-7 -3,0 -7,0 -11,4 -4,0 -4,7 -8,10zm-201 -10c4,3 7,7 11,7 4,-4 4,-7 4,-11 0,-4 -8,-4 -8,-4 -3,0 -3,4 -7,8zm156 25c4,3 4,10 4,14l3 0c4,0 4,0 4,-4l-11 -10c4,0 7,-4 11,-4l0 -7 -4 0c0,0 0,3 -3,3 0,4 0,4 -4,8zm5170 -339c0,0 -4,0 -4,3 0,4 4,8 8,4l0 -4c0,0 0,-3 -4,-3zm84 346c0,4 0,4 -4,7 4,0 4,0 8,4l0 -7 -4 -4zm-23 -25c0,4 0,4 4,4l4 0c0,-4 -4,-4 -4,-4l-4 0zm-65 -343c4,0 4,0 4,-3 0,0 0,-4 -4,-4l0 7zm-11 347l0 3 8 0 -4 -3 -4 0zm-392 28c4,-3 4,-3 8,-3l-4 -4c0,0 0,4 -4,4l0 3zm-4855 -25c0,0 4,0 4,-4l-7 0 0 4c0,3 3,3 3,0zm5334 -100l0 -3c-3,0 -3,0 -3,3l3 0zm-117 -210c0,3 3,3 3,3l0 -3 -3 0zm1271 310c0,0 0,4 3,8l4 0c4,0 4,-4 4,-4 4,-7 4,-14 0,-22 0,0 0,-3 -4,-3 0,0 -4,3 -4,7 0,4 0,7 -3,14zm133 -64c4,0 7,4 11,4l4 -4c4,-3 0,-7 -4,-7 -4,0 -7,4 -11,7zm53 86l0 7c4,-4 4,-4 8,-4 0,-3 -4,-3 -4,-7l-4 4zm-23 -29c0,4 0,4 4,4 4,-4 4,-4 0,-4l-4 0zm-72 4c-4,0 -4,3 0,3l4 0 -4 -3zm-1904 -6c-2,0 -4,4 -4,6 0,2 0,4 2,4l2 0c3,-2 5,-2 5,-4l0 -4c0,0 -2,-2 -5,-2l0 0zm179 -8c-2,0 -6,2 -6,6 0,0 0,2 2,2 2,2 6,0 6,-4 3,-2 0,-4 -2,-4zm-161 -4l-2 0 0 2 2 0 0 -2zm727 -47c0,4 -3,8 0,10 2,2 2,2 4,2l2 0c2,-4 4,-8 4,-12 3,-5 3,-7 3,-11 0,-4 -3,-6 -3,-10 0,-2 -2,-4 -4,-2 0,0 -2,0 -2,2l-4 10 0 11zm-46 -19c0,4 2,8 6,10l2 0c3,0 3,-2 3,-2 2,-6 -3,-10 -7,-12 0,-2 -2,0 -2,0 -2,0 -2,2 -2,4zm181 80c-2,-2 -4,0 -7,4 0,4 3,6 5,6 4,0 6,-2 8,-6 0,-2 -2,-4 -6,-4zm-81 -59c5,-2 7,-2 11,-2 2,0 2,-3 2,-3 2,-2 0,-4 -2,-4 -2,0 -4,0 -6,2 -3,0 -3,5 -5,7zm-116 -7c3,2 5,5 7,5 2,-3 2,-5 2,-7 0,-2 -4,-2 -4,-2 -2,0 -2,2 -5,4zm90 15c2,2 2,6 2,8l2 0c2,0 2,0 2,-2l-6 -6c2,0 4,-2 6,-2l0 -4 -2 0c0,0 0,2 -2,2 0,2 0,2 -2,4zm83 -92c0,0 -2,0 -2,2 0,2 2,4 4,2l0 -2c0,0 0,-2 -2,-2zm-2 -13c2,0 2,0 2,-2 0,0 0,-2 -2,-2l0 4zm-133 99c0,0 2,0 2,-2l-5 0 0 2c0,2 3,2 3,0zm176 45l0 -2c-2,0 -2,0 -2,2l2 0zm-67 -121c0,2 2,2 2,2l0 -2 -2 0zm1126 125c-2,0 -5,0 -7,2l0 2c2,2 2,2 5,2 2,0 2,-2 4,-4 0,0 0,-2 -2,-2zm-321 16c2,0 4,2 7,2l2 -2c2,-2 0,-4 -2,-4 -3,0 -5,2 -7,4zm-4535 -45c0,-2 2,-2 2,-2 2,0 2,0 2,2l-4 0zm15 21c0,-2 2,0 2,0l-2 2 0 -2zm1236 10l2 0 -2 0zm-498 -31c-2,0 -4,-2 -2,-4 0,-2 2,-4 4,-6 2,-6 9,-8 13,-6 5,0 9,2 13,2l0 6c-6,2 -11,4 -15,8l-13 0zm24 21c2,0 2,2 0,2l0 -2zm13 -25c2,0 2,2 2,2l-2 -2zm1316 -18c2,4 4,6 9,8l0 6c-7,2 -11,2 -15,6 0,2 -5,2 -7,2l-9 0c0,-2 -2,-4 -2,-4l4 -6c3,-10 7,-12 20,-10l0 -2zm-4 -39c0,-2 4,0 6,0l7 6 6 10c0,0 0,2 -2,4 -2,2 -4,2 -4,2 -7,-6 -11,-12 -13,-18l0 -4zm32 2l0 2c0,0 0,2 -2,2l-2 0c0,-2 0,-4 2,-4l2 0zm-194 59c0,-2 0,-4 2,-2 0,2 0,2 -2,2zm197 -33l0 -2c2,0 2,0 2,2l-2 0zm5379 66c-3,0 -3,-3 -3,0l3 0zm-15 -284l2 -4 9 -1 5 0 0 5 -1 4c0,3 -4,3 -6,5 -2,0 -4,2 -8,2 0,-4 0,-4 -2,-5 0,-2 0,-4 1,-6zm83 0l1 -3 6 -3 20 1 16 3 2 -1 8 0 4 7c-2,2 -2,7 -2,9 0,2 -3,4 -5,4 -8,2 -8,8 -5,13 0,4 0,6 -3,8l-2 2c-2,0 -5,-2 -5,-4 -2,-4 -2,-11 -2,-15 -2,-3 -2,-5 -2,-7 -2,0 -4,0 -5,0 -8,0 -24,-7 -26,-14zm-132 17c0,-2 4,-2 4,0 3,0 3,3 1,6 -1,2 -5,4 -7,2 0,-2 -2,-2 -2,-3l4 -5zm-66 6c2,0 3,2 5,2l0 3c-3,0 -5,0 -7,-1l-2 -2c2,0 2,-2 4,-2l0 0zm49 36l0 -3 7 0 0 3 -7 0zm73 51c2,0 2,-3 4,-3 0,-2 4,-2 4,-2 4,2 4,5 2,7 -2,3 -6,3 -8,2 0,0 -2,-2 -2,-4zm-58 4c2,0 4,3 2,3 0,2 -2,2 -2,2l-8 0c0,-2 -2,-4 -2,-4 0,0 2,-1 4,-1l6 0zm52 -92c0,0 2,-1 2,-3 2,0 4,2 4,2 2,1 0,3 0,5 -2,0 -4,1 -6,0l0 -4zm-9 9c-2,0 -4,1 -8,1l-2 -1c0,-2 2,-2 2,-2 4,-2 6,0 8,2zm0 -17l-2 0 -2 -2c0,0 2,-1 4,-1l0 3zm1 33c0,-4 -5,-8 -10,-8 -5,0 -10,4 -10,4 0,4 0,8 5,8 5,0 10,4 15,4l0 -8zm23 8c5,-4 10,-4 10,-8 5,0 5,-4 5,-8l-5 0c0,4 0,4 -5,4 0,4 -5,8 -5,12zm157 -58l7 0c2,2 1,4 0,7 0,0 0,2 -3,2l-2 -2c0,-2 0,-4 -3,-6 1,0 1,0 1,-1zm24 107l0 19 -7 0c0,0 -3,0 -5,-2 -3,0 -5,-4 -3,-6l3 0c2,-4 2,-6 0,-9l0 -2c0,-2 0,-2 2,-4 5,1 8,3 10,4zm-3 235l-2 0 0 -3c2,0 2,2 2,2l0 1zm-88 -288c-5,2 -8,2 -13,2 -2,0 -5,-4 -2,-6l0 -3c2,-2 5,-4 7,-4 5,2 8,4 8,7l0 4zm-3 -30c3,0 3,2 3,2 0,2 -3,2 -3,2l-2 -2c0,-2 2,-2 2,-2zm79 300c0,2 0,4 3,6 -3,0 -5,2 -10,2 -3,0 -5,-2 -5,-2 -5,-2 -5,-6 -5,-8l5 -5c5,0 7,0 10,3 0,2 2,2 2,4zm-94 -28c0,2 0,2 -2,5 -2,0 -5,-3 -5,-5l5 -4c0,0 5,2 2,4zm-55 -123c0,-4 9,-7 13,-7 5,0 9,0 9,3l0 4c-4,4 -4,8 -9,8l-8 0c0,0 -5,-4 -5,-8l0 0zm121 37c0,-4 0,-7 4,-7 4,0 9,3 9,7 0,4 -5,7 -9,4 -4,0 -4,0 -4,-4zm-22 -18c-4,3 -8,3 -8,3l-5 -3c0,-4 5,-8 9,-8 0,4 0,4 4,8zm33 97c-4,0 -8,-3 -12,-7l0 -4c0,0 4,-3 4,0l8 11zm-57 34c3,0 3,1 5,3 2,3 3,3 -2,3l-4 0c-4,0 -3,-2 -3,-6l4 0zm-63 -19c4,0 4,0 4,4 5,0 0,3 0,3l-4 0c-4,-3 -4,-7 0,-7zm-37 -101l0 -4 4 0 0 4 -4 0zm109 74c0,5 -6,11 0,16 6,10 12,15 24,15l6 0 0 -10 -30 -21zm-157 5c5,2 8,5 10,9l8 0c2,-7 2,-11 7,-15 3,0 3,-4 3,-6l0 -9c-3,0 -5,-2 -5,-2l-8 4c-12,2 -15,7 -12,19l-3 0zm-47 12c-3,0 0,4 0,6l7 7 12 6c0,0 3,0 5,-2 3,-2 3,-4 3,-4 -8,-7 -15,-11 -22,-13l-5 0zm2 31l3 0c0,0 2,0 2,-2l0 -2c-2,0 -5,0 -5,2l0 2zm73 -203c-3,0 -5,0 -3,2 3,0 3,0 3,-2zm-41 206l-2 0c0,2 0,2 2,2l0 -2zm-11220 15l-10 0c1,-1 3,-2 4,-2 2,0 4,1 6,2zm-53 0l-6 0 0 -2 6 0 0 2zm-34 0l-8 0 0 -61c12,8 17,17 17,32 -9,9 -9,19 -9,28l0 1zm-8 -128l0 -73c5,8 11,15 17,21 7,6 5,16 3,25 -1,5 -3,9 -3,12l-17 15zm154 -2c0,0 -3,0 -3,2 -2,3 -2,7 -2,9 2,9 7,13 15,15l3 0c2,-4 2,-11 0,-15 -3,-4 -5,-9 -11,-11l-2 0zm-28 100c0,-2 -5,-2 -5,0 -4,0 -4,4 -2,8 2,3 7,5 9,3 0,-3 2,-3 2,-5l-4 -6zm-27 -35c0,2 -2,2 -2,4 -2,3 2,5 5,5 2,0 4,-2 4,-5 0,-2 -2,-4 -7,-4zm-86 -37c-2,0 -4,2 -6,2l0 4c4,0 6,0 8,-2l3 -2c-3,0 -3,-2 -5,-2l0 0zm149 11c0,0 -2,0 -2,2 0,2 0,5 4,7 3,-2 5,-5 3,-7 0,0 -3,-2 -5,-2zm15 13c3,2 5,2 9,2 0,2 2,0 2,-2l-2 -2c-4,0 -6,2 -9,2zm3 -24c-3,0 -3,0 -3,2l3 0c2,-2 2,-2 0,-2zm43 -182l-2 0c0,3 2,3 4,3l-2 -3zm91 102l2 0 0 -2 -2 0 0 2zm-260 -132l0 -2 -2 0 2 2zm86 51c0,0 -4,0 -4,-4 -11,8 -11,19 -7,27 0,11 3,22 7,34l4 0c4,0 8,0 8,-4 -4,-15 -8,-34 -8,-53l0 0zm94 57c0,0 -3,0 -7,4l0 3c0,4 4,4 4,4 7,4 15,4 22,0 0,0 4,0 4,-4 0,0 -4,-3 -8,-3 -3,0 -7,0 -15,-4zm-173 0c0,0 0,-4 3,-4l-3 -4c-4,0 -12,-4 -15,-4 -4,0 -8,4 -8,4 0,4 4,8 4,8l19 0zm7 -76c-4,0 -7,0 -15,4 -4,-4 -11,-4 -11,4 4,-4 7,-4 11,-4l4 0c0,0 4,4 4,8l11 0c4,-4 4,-8 4,-8 -4,-4 -8,-4 -8,-4zm234 208c0,4 -3,7 -3,11l3 4c4,4 8,0 8,-4 0,-4 -4,-7 -8,-11zm-90 53l-8 0c4,4 4,4 4,7 4,0 4,-3 7,-3l-3 -4zm-208 -257l4 0 0 -8 -4 0 0 8zm238 234c-4,0 -4,0 -4,4 4,4 4,4 4,0l0 -4zm-4 -72c0,-3 -4,-3 -4,0l0 4 4 -4zm-169 78c0,-4 0,-4 2,-7 0,-4 0,-8 -4,-13l-6 -6c-3,-2 -7,0 -7,2 -4,4 -2,9 0,15 0,5 4,5 7,7 2,0 4,2 8,2zm0 15c0,0 -2,-2 -2,-4 -2,0 -4,2 -4,2 -2,2 0,4 0,6 2,0 4,3 6,0l0 -4zm182 -41c0,-2 0,-4 -2,-7l-2 0c-3,3 -3,3 -3,5 0,2 3,2 5,4 0,0 2,0 2,-2zm-171 52c2,0 4,2 9,2l2 -2c0,-2 -2,-2 -2,-2 -5,-2 -7,0 -9,2zm0 -22l2 0 2 -2c0,0 -2,-2 -4,-2l0 4zm80 -262l0 -2 -4 0 0 2 4 0zm-56 97c0,5 -6,5 -6,0l0 -6c6,0 6,6 6,6zm58 -133c-2,0 -3,0 -4,-1 -1,0 -2,0 -3,0 -4,4 -7,0 -11,-7 0,-7 4,-10 7,-10 7,0 11,3 14,10 0,2 0,3 -2,5 0,0 1,1 1,1 0,0 0,2 -2,2zm-136 100c7,4 10,4 17,4 4,0 4,3 4,3 3,4 0,7 -4,7 -3,0 -7,0 -10,-3 -4,0 -4,-7 -7,-11zm90 143c0,0 -3,0 -3,-3 0,-4 3,-7 7,-4l0 4c0,0 0,3 -4,3zm67 -223l0 4c-4,0 -4,0 -4,-4l4 0zm-108 206c0,-4 3,-4 3,-4l0 4 -3 0zm186 -236c0,-4 -2,-8 0,-10 2,-2 2,-2 4,-2l2 0c2,4 4,8 4,12 2,4 2,6 2,10 0,4 -2,6 -2,10 0,2 -2,4 -4,2 0,0 -2,0 -2,-2l-4 -10 0 -10zm-42 18c0,-4 2,-8 6,-10l2 0c2,0 2,2 2,2 2,6 -2,10 -6,12 0,2 -2,0 -2,0 -2,0 -2,-2 -2,-4zm92 -20c4,2 6,2 10,2 2,0 2,2 2,2 2,2 0,4 -2,4 -2,0 -4,0 -6,-2 -2,0 -2,-4 -4,-6zm-106 6c2,-2 4,-4 6,-4 2,2 2,4 2,6 0,2 -4,2 -4,2 -2,0 -2,-2 -4,-4zm82 -14c2,-2 2,-6 2,-8l2 0c2,0 2,0 2,2l-6 6c2,0 4,2 6,2l0 4 -2 0c0,0 0,-2 -2,-2 0,-2 0,-2 -2,-4zm76 90c0,0 -2,0 -2,-2 0,-2 2,-4 4,-2l0 2c0,0 0,2 -2,2zm-2 12c2,0 2,0 2,2 0,0 0,2 -2,2l0 -4zm-122 -96c0,0 2,0 2,2l-4 0 0 -2c0,-2 2,-2 2,0zm100 74c0,-2 2,-2 2,-2l0 2 -2 0z"/>
 </g>
</svg>
