<?xml version="1.0" encoding="UTF-8"?>
<!DOCTYPE svg PUBLIC "-//W3C//DTD SVG 1.1//EN" "http://www.w3.org/Graphics/SVG/1.1/DTD/svg11.dtd">
<!-- Creator: CorelDRAW X7 -->
<svg xmlns="http://www.w3.org/2000/svg" xml:space="preserve" width="50.8846mm" height="3.0478mm" version="1.1" style="shape-rendering:geometricPrecision; text-rendering:geometricPrecision; image-rendering:optimizeQuality; fill-rule:evenodd; clip-rule:evenodd"
viewBox="0 0 5088 305"
 xmlns:xlink="http://www.w3.org/1999/xlink">
 <defs>
  <style type="text/css">
   <![CDATA[
    .fil0 {fill:#CCAC63}
   ]]>
  </style>
 </defs>
 <g id="Capa_x0020_1">
  <metadata id="CorelCorpID_0Corel-Layer"/>
  <path class="fil0" d="M1295 245c-4,-1 -4,-1 -3,-11l5 1 -2 10zm-1211 -245l11 0c-3,3 -7,13 -9,6 0,0 -2,-1 -2,-6zm961 0l6 0 -4 8 1 -3c-1,-1 -2,-3 -3,-5zm26 0l3 0c-1,1 -2,1 -2,1l-1 -1zm255 0l11 0 0 1 -4 7c-4,-1 -5,-4 -7,-8zm22 0l14 0c-3,1 -5,1 -8,1 -2,0 -4,0 -6,-1zm214 0l10 0c-1,1 -1,1 -2,2 -2,1 -7,0 -7,-1 0,0 -1,0 -1,-1zm1103 0l93 0c1,1 1,1 1,1l-14 10c0,0 0,2 5,2l27 3 -4 0c-5,2 -14,4 -14,8 0,4 4,6 9,8l0 2 -18 0c-5,0 -10,0 -10,4 0,1 0,3 -4,5 -5,0 -9,2 -14,0l0 -4c-5,0 0,-1 0,-1 5,-10 0,-18 -14,-25 -14,-4 -32,-6 -41,-12 -2,0 -3,0 -2,-1zm226 0l1 0 0 2c0,0 0,0 -2,0 0,-1 0,-1 1,-2zm22 0l5 0 -1 1 -4 0 0 -1zm142 0l10 0c-1,0 -2,2 -4,2 -4,0 -6,0 -8,0 1,-1 2,-1 2,-2zm1124 0l3 0c-1,1 -2,1 -3,0zm122 0l5 0c0,1 0,2 0,3l0 3 -5 0 0 -6zm467 0l1 0 0 1 -1 -1zm193 0l48 0c-2,1 -5,1 -7,2 -15,8 -20,17 -15,27 0,0 5,3 0,3l0 4c-5,2 -10,0 -15,0 -6,-2 -6,-4 -6,-7 0,-4 -5,-4 -10,-4l-20 0 0 -2c5,-2 10,-4 10,-8 0,-5 -10,-7 -15,-9l-5 0 30 -4c4,0 5,-1 5,-2zm128 42l0 23 -2 0c-15,-6 -22,-11 -22,-17 0,-3 7,-5 15,-5 3,-2 6,-2 9,-1zm-2528 162l2 0 -2 -2 0 2zm594 -198l-2 0 2 1 0 -1zm139 35c-4,1 -8,1 -9,2 -2,1 -2,1 -2,2l0 1c4,1 8,1 12,0 3,1 5,0 9,0 4,-1 5,-2 9,-3 2,0 4,-1 2,-2 0,0 -1,-1 -2,-1l-10 0 -9 1zm-646 36c-2,2 -2,4 0,5 4,1 7,2 11,4 2,0 3,-1 3,-2 2,-2 1,-4 -3,-6l-6 -2c0,-1 -2,0 -4,0l-1 1zm505 -3c0,0 0,-1 -2,-1 -4,3 -5,5 -3,8 1,3 3,5 5,7 0,1 2,1 2,1 2,-1 4,-1 4,-2 -3,-4 -5,-8 -6,-13zm-667 1c0,0 2,0 2,1l10 -4 4 -4c-1,-1 -2,-2 -2,-2 -8,1 -13,2 -15,6 -1,1 -1,2 1,3zm821 -57c-4,1 -7,2 -9,4l0 1c1,1 2,1 2,1 6,0 10,-2 11,-5 2,0 0,-1 0,-1 0,-1 -2,0 -4,0zm-895 153c6,-1 9,-3 11,-5 2,0 0,-1 0,-1 -2,-1 -4,0 -6,0 -2,1 -3,3 -7,3l0 2 2 1zm796 -87c1,-1 1,-1 3,-2l2 0c-2,-1 -2,-2 -2,-2 -4,1 -8,1 -10,1 -3,1 -5,2 -3,1 0,1 0,2 2,2 2,0 6,-1 8,0zm-366 -25c-1,1 -3,1 -5,2l-2 0 0 1c4,0 10,0 15,-1l0 -2c-2,-1 -4,0 -8,0zm274 36c2,0 2,-1 2,-1 0,0 0,-1 -2,-1 -2,0 -6,0 -8,0 -1,1 -1,1 -3,2 0,1 2,1 4,1l7 -1zm180 -29c2,2 2,3 3,5 0,1 2,1 2,1 2,0 3,-1 3,-2 0,-1 0,-2 -2,-3 0,-1 -4,0 -6,-1zm-186 11c-4,-1 -4,-1 -6,1l6 -1c1,0 2,1 4,1 2,1 5,-1 5,-2 2,0 2,-1 0,-2 -4,1 -6,2 -9,3zm-503 39c0,1 2,1 5,1 0,-1 2,-2 2,-3 0,-1 -4,-1 -8,0l1 2zm53 -23c0,0 -2,0 -2,1 -2,1 1,3 2,2 2,0 4,0 4,-1 2,-1 -1,-3 -4,-2zm-255 67c-2,0 -4,2 -4,3 1,1 3,1 4,1 2,0 4,-2 4,-3 0,-1 -2,-1 -4,-1zm888 -147c-2,1 -3,3 -3,4 2,0 4,0 5,0 2,-1 2,-3 2,-3 0,0 -2,0 -4,-1zm-612 81c-4,1 -5,2 -7,3 2,0 3,0 7,0 0,0 2,-1 2,-2l-2 -1zm448 -72c2,0 4,-1 3,-3l-5 1 0 2 2 0zm158 34c-2,1 -6,2 -8,2l1 1c0,1 0,1 2,1l5 -4c0,1 2,1 2,2l4 0 0 -1c0,0 -2,0 -3,-1 -1,0 -1,0 -3,0zm-238 -47l0 -2c-2,0 -2,1 -2,1l0 1 2 0zm126 -5c2,1 2,1 3,2l1 -1c0,0 -2,0 -2,-1l-2 0zm113 27c0,0 0,1 2,1l0 -2 -2 0c-2,0 -2,1 0,1zm-614 54c0,0 -2,0 -2,1l4 0 -2 -1zm409 -52c-2,0 -2,0 -1,1l1 0 0 -1zm282 36c-2,0 -2,1 -2,1l2 0 0 -1zm-714 18c-2,0 -2,1 -2,1l2 -1zm162 -34c-2,0 0,1 0,1l0 -1zm-340 -48c-2,0 -4,-2 -6,-2 -2,-2 -4,1 -5,3l2 14c2,2 2,2 4,2l17 -3 -1 -3c2,0 2,-3 0,-2 -3,-5 -7,-7 -11,-9zm82 46c0,3 -1,6 -1,6 3,10 7,20 7,31 0,3 1,5 3,5l1 0c4,-4 5,-7 4,-12l-10 -28c0,0 -1,-3 -2,-2l-2 0zm501 -15l4 -1c3,-3 3,-5 0,-10 -2,-3 -7,-5 -8,-2 0,3 -1,3 -1,6l5 7zm219 37c0,-2 1,-5 -1,-8 -3,-5 -5,-7 -9,-6l-2 0 1 5 11 9zm-288 -39c4,2 8,1 9,-2l0 -5c-3,-5 -8,-1 -11,4l0 3 2 0zm-560 166l0 -3c-4,-2 -8,1 -9,4l1 8 8 -9zm71 -148c-2,0 -1,3 -1,6l2 -1c4,3 5,0 7,-3l-1 -3 -7 1zm175 23c-3,-2 -4,1 -5,4 2,-1 4,4 6,1 0,0 2,0 1,-3 0,0 0,-2 -2,-2zm55 2c2,-3 -1,-6 -3,-5l-1 3c0,2 2,2 3,5l1 -3zm-44 10c0,0 1,2 3,2l1 -3 -1 -3c-1,1 -1,1 -3,4zm-157 -34c0,0 0,3 2,2 1,-3 1,-5 -1,-5l-1 3zm262 57c1,-3 -1,-3 -1,-3l-1 1c0,0 1,-1 2,2zm-108 15l-2 -2c0,0 0,3 -2,3l4 -1zm83 -49l2 0 0 -3 -2 3zm-404 -62l-6 0 -4 -3 0 -3c4,-3 8,0 10,3l0 3zm-829 0l-7 0c1,-3 2,-7 2,-10 0,0 0,-1 2,-1 4,2 6,4 4,8 0,1 0,2 -1,3zm-130 0l-9 0c1,-4 3,-6 7,-6l2 0 0 5 0 1zm-26 -6c2,1 6,1 8,1l0 2c0,1 0,1 -2,1l-6 -4c0,1 -3,3 -3,4l-4 0 0 -1c0,0 2,0 2,-2 2,0 2,0 5,-1zm3518 54c0,0 -6,3 -9,-1l5 -3 4 4zm-52 33l-8 0 0 3 8 -3zm134 3l-7 3 7 0 0 -3zm-227 -37c0,0 -9,-1 -14,1 -1,-10 9,-15 15,-18 8,2 17,3 20,7 9,2 12,6 13,16l-34 -6zm-4024 111c-8,-1 -12,-5 -4,-14l5 -3 3 4c7,8 1,11 -4,13zm3916 -84c-4,-2 -4,-3 -4,-5l-8 0c-3,0 -3,2 -3,3 0,2 3,2 3,3l8 0c0,0 0,-1 4,-1zm-3881 17c-3,2 0,3 4,5 0,-2 8,-3 4,-5 0,0 0,-2 -4,-2 0,0 -4,0 -4,2zm16 -46c-4,-2 -8,0 -8,1l4 2c4,0 4,-2 8,-2l-4 -1zm4 38c0,0 4,0 4,-2l-4 -1 -4 0c0,1 0,1 4,3zm3880 -19c4,-1 4,-1 0,-3 0,0 0,2 -3,2l0 1 3 0zm16 16c0,-1 -4,-1 -4,-1l0 3c4,0 4,-2 4,-2zm-3892 -66l0 -1 -4 0 4 1zm4127 77c16,5 26,5 41,0 -10,-4 -15,-6 -30,-4 -5,0 -11,0 -16,2l0 2 5 0zm-35 -40c5,0 5,-2 5,-2 0,-2 5,-6 5,-8 0,-2 -5,-5 -5,-5 -5,0 -5,3 -10,3l0 10 5 2zm91 -6c6,-4 6,-4 0,-6l0 6c0,2 -5,2 -10,4 -5,2 0,6 5,6 0,3 5,3 11,0 0,-4 -6,-6 -6,-10zm-122 -29c-8,-1 -14,1 -19,4l-3 -4c-6,2 -4,-4 5,-3 5,-2 9,2 17,3zm-2037 37c0,0 5,3 8,-1l-5 -2 -3 3zm-190 -10c7,-3 7,-5 7,-5 0,-3 7,-5 14,-3 6,0 13,3 13,5 0,5 -7,11 -20,16l-7 0 -7 -3 0 -10zm183 222l7 0c7,5 0,10 -7,12l-20 0 20 -12zm54 -182l7 0 0 3 -7 -3zm-121 3l6 2 -6 0 0 -2zm205 -34c0,0 8,-1 13,1 1,-9 -9,-14 -13,-16 -8,1 -16,3 -19,6 -8,2 -11,5 -12,15l31 -6zm22 239c7,-2 10,-5 4,-13l-5 -3 -3 4c-6,7 -1,9 4,12zm76 -215c3,-1 3,-2 3,-4l7 0c4,0 4,2 4,3 0,1 -4,1 -4,3l-7 0c0,0 0,-2 -3,-2zm-109 154c4,1 0,3 -3,4 0,-1 -7,-3 -3,-4 0,0 0,-2 3,-2 0,0 3,0 3,2zm-14 -42c4,-2 8,0 8,1l-4 2c-4,0 -4,-2 -7,-2l3 -1zm-3 35c0,0 -3,0 -3,-2l3 -1 3 0c0,1 0,1 -3,3zm108 -155c-3,-2 -3,-2 0,-3 0,0 0,1 4,1l0 2 -4 0zm-14 14c0,-1 4,-1 4,-1l0 3c-4,0 -4,-2 -4,-2zm-97 78l0 -1 3 0 -3 1zm-1065 -161c0,6 -5,6 -14,6 -18,0 -28,-4 -37,-10 0,-2 5,-4 5,-4l9 0c5,2 9,4 19,0l0 -2c4,0 13,0 13,2 5,4 5,6 5,8zm949 93c-14,4 -23,4 -37,0 9,-4 14,-5 28,-4 5,0 9,0 14,2l0 2 -5 0zm-147 159c0,5 -5,9 -14,11 0,2 -5,0 -5,0 -4,-2 -4,-4 -4,-6 4,-2 9,-3 9,-7l9 0 5 2zm179 -195c-4,0 -4,-2 -4,-2 0,-2 -5,-6 -5,-8 0,-2 5,-3 5,-3 4,0 4,1 9,1l0 10 -5 2zm-83 -6c-4,-4 -4,-4 0,-6l0 6c0,2 5,2 10,4 4,2 0,6 -5,6 0,2 -5,2 -9,0 0,-4 4,-6 4,-10zm-152 195c0,-2 5,-4 9,-4 5,0 10,2 10,4 0,2 -5,4 -10,4 -4,0 -9,-2 -9,-4zm263 -221c8,-1 13,1 17,3l3 -3c5,2 3,-4 -4,-3 -5,-2 -8,2 -16,3zm1300 152c5,0 11,0 16,-3 2,0 5,-3 7,-6 3,-5 3,-14 -5,-17 -2,0 -5,-3 -7,-3 -13,0 -24,0 -34,9 -3,3 -3,8 -3,11 0,3 3,6 8,6 5,3 11,3 18,3zm65 -81c2,0 5,0 8,3 0,-3 2,-5 2,-11 0,-3 -2,-6 -2,-6 -3,-6 -8,-6 -11,-6l-5 6c0,6 0,9 3,12 2,0 2,2 5,2zm271 -69c0,-2 -2,-2 -2,-2 0,0 -3,0 -3,2 0,3 -3,9 -3,12 0,3 0,3 3,6 3,0 5,-3 5,-6l0 -12zm-49 6c-2,6 -2,6 0,9l0 -9c0,-3 3,-3 5,-6 3,-2 0,-8 -2,-8 0,-3 -3,-3 -5,0 0,6 2,8 2,14zm393 -20c0,0 0,3 2,3l0 -5c-2,-3 -2,0 -2,2zm-592 95l-5 0c0,3 3,3 3,3l2 0 0 -3zm75 -46c0,3 0,3 3,3l0 -3 -3 0zm-3 42l0 -6c-7,-6 -14,-6 -27,-3 -7,3 -14,9 -7,12 7,0 7,3 14,3l20 -6zm423 3c0,-3 7,-3 7,-6 0,-5 -7,-8 -21,-5 0,0 -7,3 -7,5 0,3 7,6 21,6zm-4420 -107c-4,0 -3,-4 -7,-5 -4,0 -5,3 -6,7l0 3 8 2c0,-4 4,-3 5,-7zm19 8c5,-3 1,-4 1,-4l-4 -1c0,0 4,1 3,5zm-331 -10l-2 -1 1 -6 0 2 1 5zm83 9c0,0 3,0 2,3l-5 -1 3 -2zm35 0c3,1 2,4 2,4l-2 -4zm1168 105c0,0 -4,8 -5,15l-14 29c-5,7 -10,6 -10,6 -5,-9 -3,-16 -2,-24 3,-15 6,-30 11,-45 6,-15 14,-13 21,-20 0,0 3,1 2,8 -2,8 -3,16 -1,24l-2 7zm-911 -20c-1,-8 -4,-8 -4,-8 -3,-1 -4,-9 0,-16 1,-8 5,-15 8,-14 6,1 10,9 13,25l-1 8 -5 7 -11 -2zm918 -80c0,0 4,-8 5,-15 3,0 6,1 4,9 -1,7 -2,15 -6,22l-3 -1c-3,0 -2,-8 0,-15zm-980 6c-3,0 -2,-8 -2,-8 -1,-8 6,-15 7,-7 2,9 -3,16 -5,15zm996 51c-3,0 -2,-8 -2,-8l6 1c-2,8 -4,7 -4,7zm-190 65c-1,3 -1,6 -4,8 -1,6 1,9 7,10 -1,3 0,0 2,0 8,5 6,1 7,13 -7,5 -13,7 -21,2 -8,-4 -12,-14 -8,-21 1,-3 1,-6 5,-8l12 -4zm9 -36c-3,2 -9,4 -15,3 0,0 -2,-4 -2,-6 1,-3 4,-3 4,-6 6,1 11,5 13,9zm-167 -89c0,-3 3,-2 3,-2 3,0 9,-2 12,-1 3,0 5,4 5,4 0,3 -3,2 -4,5l-14 -3 -2 -3zm161 123c1,-3 4,-6 5,-11 3,0 4,-3 6,-2 0,0 3,0 3,3 2,1 2,4 -1,6l-13 4zm-601 -61c-9,-2 -16,-14 -16,-35l2 -10c1,-10 6,-9 6,-9 14,-8 19,14 20,35 4,1 -2,10 -2,10 -2,10 -6,9 -10,9zm-43 65c-3,-11 -5,-22 -3,-32 6,-9 10,-8 14,-8 5,1 1,21 1,21 -2,10 -6,10 -12,19zm-406 115c4,0 8,1 5,21l-13 -2 3 -20 5 1z"/>
 </g>
</svg>
