<?xml version="1.0" encoding="UTF-8"?>
<!DOCTYPE svg PUBLIC "-//W3C//DTD SVG 1.1//EN" "http://www.w3.org/Graphics/SVG/1.1/DTD/svg11.dtd">
<!-- Creator: CorelDRAW X7 -->
<svg xmlns="http://www.w3.org/2000/svg" xml:space="preserve" width="50.8846mm" height="3.0478mm" version="1.1" style="shape-rendering:geometricPrecision; text-rendering:geometricPrecision; image-rendering:optimizeQuality; fill-rule:evenodd; clip-rule:evenodd"
viewBox="0 0 5088 305"
 xmlns:xlink="http://www.w3.org/1999/xlink">
 <defs>
  <style type="text/css">
   <![CDATA[
    .fil0 {fill:white}
   ]]>
  </style>
 </defs>
 <g id="Capa_x0020_1">
  <metadata id="CorelCorpID_0Corel-Layer"/>
  <path class="fil0" d="M5090 175l0 7 -17 8 -14 0 0 -2c0,-6 7,-9 21,-12 3,-1 6,-1 10,-1zm-1281 129l-2 0c1,0 1,-1 2,-1l0 1zm-61 0l-6 0c0,-1 0,-2 -2,-4 2,1 6,0 6,1 2,1 2,2 2,3zm-29 0l-4 0 -7 -6 -1 -5 2 0c4,-1 6,1 9,6 1,2 1,3 1,5zm-357 0l-11 0c2,-8 5,-11 12,-13 3,-3 11,-5 18,-6 5,2 15,7 14,16 -5,-2 -13,-1 -13,-1l-20 4zm-94 0l-3 0c-2,-1 -2,-2 -2,-2 0,-2 -5,-6 -5,-7 0,-2 5,-4 5,-4 4,0 4,2 9,2l0 9 -4 2zm-66 0l-44 0 0 -1c-14,-3 -33,-5 -42,-11 -4,0 0,-2 0,-4 5,0 5,-2 5,-2 4,2 4,2 9,2 9,0 14,0 18,-4 10,-2 14,-5 23,-9 5,0 10,-2 10,-2l9 0c5,2 5,4 5,4 0,3 -5,5 -10,9 0,2 5,4 14,4 0,0 5,-2 5,0 4,0 4,2 4,2l-13 9c0,0 0,2 4,2l3 1zm-269 0l-20 0 -2 -7c2,-3 3,-6 6,-3 1,-1 4,2 6,1 4,2 7,4 10,9zm-123 0l-8 0 -3 -3 0 -3c5,-3 9,0 11,3l0 3zm-518 0l-44 0c-2,-1 -5,-3 -7,-4 0,-2 4,-4 4,-4l10 0c4,2 9,4 18,0l0 -2c5,0 14,0 14,2 5,4 5,6 5,8l0 0zm-311 0l-7 0c1,-3 1,-6 1,-9 0,0 0,-1 2,-1 5,2 7,4 5,7 0,1 -1,2 -1,3zm-130 0l-10 0c2,-4 4,-6 7,-6l3 0 0 6zm-1089 0l-11 0c1,-3 2,-5 5,-5 4,1 4,4 6,5zm-479 0l-29 0c2,-2 8,-4 14,-4 7,-3 15,0 15,3 0,0 0,0 0,1zm3316 -64l-2 0 2 1 0 -1zm-156 -23c0,2 1,4 3,5 0,1 2,2 4,3 4,0 9,-1 11,-4 -1,-1 1,-2 1,-3 -1,-5 -1,-9 -8,-12 -2,-1 -5,0 -7,0 -2,0 -4,2 -3,4 -2,2 -2,4 -1,7zm295 58c-4,1 -8,1 -10,2 -1,1 -1,1 -1,2l0 1c4,1 8,1 11,0 4,1 6,0 10,0 4,-1 5,-2 9,-3 2,0 4,-1 2,-2 0,0 -1,-1 -2,-1l-10 0 -9 1zm-313 -52c-4,1 -5,3 -5,4l0 3c2,0 4,1 6,0 4,-1 5,-2 7,-3 2,-2 1,-4 -2,-4 -2,0 -4,0 -6,0zm74 10c0,1 0,2 -2,3 2,0 4,1 8,0 2,0 3,-2 3,-2 4,-1 4,-3 4,-4l-4 -2c-4,1 -6,1 -8,3 0,1 -1,1 -1,2zm252 19c-4,1 -7,2 -9,4l0 1c0,1 2,1 2,1 6,0 9,-2 11,-5 2,0 0,-1 0,-1 0,-1 -2,0 -4,0zm-465 41c-2,1 -3,1 -5,2l-2 1 0 1c4,-1 10,-1 15,-2l0 -2c-2,-1 -4,0 -8,0zm451 -46c-2,2 -4,3 -3,4 2,0 3,0 5,0 2,0 2,-2 2,-2 0,-1 -2,-1 -4,-2zm-170 -38c0,1 0,1 2,1 2,0 4,-1 3,-2l-4 -2c0,0 -3,2 -1,3zm6 47c2,0 4,0 3,-2l-5 0 0 2 2 0zm158 34c-2,1 -6,2 -8,2l0 1c1,1 1,1 2,1l6 -4c0,1 2,1 2,2l4 0 -1 -1c0,0 -1,0 -2,-1 -1,0 -1,0 -3,0zm-389 -61c-3,1 -5,2 -7,4 0,1 -1,2 -1,3 2,1 2,1 2,0l-1 -3 7 -4zm151 14l-1 -2c-1,0 -1,1 -1,1l0 1 2 0zm126 -5c2,1 2,1 3,2l1 -1c0,0 -2,0 -2,-1l-2 0zm113 27c0,0 0,1 2,1l0 -2 -2 0c-2,1 -2,2 0,1zm-205 2c-2,0 -2,0 -2,1l2 0 0 -1zm-181 -37c2,0 2,0 0,-1 0,0 0,-1 -2,-1l2 1 0 1zm-89 57c-2,0 0,1 0,1l0 -1zm68 -119c-1,1 -3,1 -5,4l-3 14c0,0 0,3 2,3 2,2 4,2 4,2 5,-4 8,-10 11,-16 0,-2 -3,-5 -3,-7l-6 0zm-379 99c-1,0 -3,1 -3,3 -1,6 0,14 5,18 0,0 2,0 1,-2l2 -1 -2 -16 -3 -2zm554 3l4 0c3,-4 2,-6 0,-11 -3,-3 -7,-5 -8,-2 0,3 -2,3 -1,6l5 7zm-69 -2c4,2 8,1 9,-2l0 -5c-3,-5 -8,-1 -11,5l0 2 2 0zm-132 -73c2,-3 4,-4 5,-4l0 -5c-1,-3 -3,-3 -5,-2 -1,0 -1,3 -3,3l1 5c0,0 2,0 2,3zm14 11c2,2 2,2 3,-1 0,0 -2,1 -2,-2l-2 0 1 3zm-17 14c2,-1 1,-3 1,-3l-3 0c0,3 2,3 2,3zm-367 66c2,3 1,0 1,0l0 -3c-2,1 -2,1 -1,3zm643 -57l2 0 -2 1 0 -1zm381 -16c0,2 -3,3 -3,3 3,6 6,12 3,18 0,2 0,3 3,3l3 0c6,-1 9,-3 9,-6l-9 -16c0,0 0,-2 -3,-2l-3 0zm-89 -4c-3,0 -3,1 -3,3l3 0c6,1 9,0 12,-2l0 -1 -12 0zm267 28c-3,-1 -6,0 -9,2 3,0 6,3 9,1 0,0 3,0 3,-1 0,0 0,-2 -3,-2zm156 29c-3,0 -3,-1 -6,-1 -2,0 -2,1 -2,3l0 1 5 0c0,-1 3,-1 3,-3zm-71 -23c3,-1 0,-3 -3,-3l-3 2c0,1 3,1 3,3l3 -2zm-71 2c0,0 0,2 3,2l3 -2 0 -2c-3,0 -3,0 -6,2zm-236 -33c0,0 0,1 3,1 3,-1 3,-3 0,-3l-3 2zm523 -8c3,0 3,-2 3,-2l-6 0c0,2 3,2 3,2zm-1115 -10c0,-1 0,-1 -3,0 0,0 0,2 3,2l0 -2zm985 74c3,-2 0,-2 0,-2l-3 0c0,0 3,0 3,2zm-171 -2l-3 -1c0,0 0,1 -3,1l6 0zm142 -19l3 0 0 -2 -3 2zm-1135 -27c0,-4 -2,-8 -2,-16 -3,0 -3,-4 -6,-4 0,0 -3,0 -3,4 -3,0 -3,4 0,8l11 8zm-1177 3l2 0 -2 1 0 -1zm167 -52c0,2 0,4 -2,6 0,1 -2,2 -4,4 -4,1 -10,1 -12,-3 0,-1 -3,-2 -3,-3 0,-5 0,-9 7,-14 2,-1 6,-1 8,-1 2,0 4,1 4,3 2,3 2,5 2,8zm-314 114c4,0 8,-1 10,0 2,1 2,1 2,2l0 1c-4,1 -8,2 -12,2 -5,2 -7,2 -11,2 -4,0 -6,-2 -10,-2 -2,0 -5,-1 -2,-2 0,0 0,-1 2,-1l10 -2 11 0zm720 -75c2,1 2,3 0,5 -5,1 -7,3 -11,5 -2,2 -4,0 -4,-1 -2,-2 -2,-4 2,-6l6 -3c0,-1 2,-1 5,-1l2 1zm178 -32c0,0 -2,1 -2,3l-13 -4 -4 -3c0,-1 2,-2 2,-2 9,-1 15,0 17,3 2,1 2,2 0,3zm-563 -4c5,0 7,2 7,3l0 4c-2,1 -4,2 -7,1 -4,0 -6,-1 -8,-3 -2,-1 -2,-3 2,-4 2,0 4,-1 6,-1zm-79 24c0,1 0,2 2,3 -2,0 -4,1 -9,1 -2,0 -4,-1 -4,-1 -4,-1 -4,-3 -4,-4l4 -2c4,0 7,0 9,1 0,1 2,1 2,2zm-275 64c4,0 8,2 10,4l0 1c0,1 -2,1 -2,1 -6,1 -10,-1 -12,-3 -3,0 0,-1 0,-1 0,-2 2,-2 4,-2zm1016 6c-7,0 -11,-1 -13,-3 -2,0 0,-1 0,-1 2,-2 4,-2 6,-2 3,2 5,3 9,3l0 2 -2 1zm-496 -43c2,0 5,0 7,1l2 0 0 1c-4,0 -11,1 -17,1l0 -2c2,-1 4,-1 8,-1zm-291 65c4,-1 4,-1 6,0l-6 0c-3,0 -3,2 -5,3 -2,1 -6,0 -6,-1 -2,0 -2,-2 0,-3 4,0 6,1 11,1zm562 -46c0,1 -2,1 -6,1 0,-1 -2,-1 -2,-2 0,-1 4,-2 8,-1l0 2zm-63 -16c0,0 2,0 2,1 2,1 0,3 -2,3 -2,0 -4,0 -4,-1 -2,-1 0,-3 4,-3zm294 27c2,0 4,1 4,2 0,1 -2,2 -4,2 -2,0 -4,-1 -4,-2 0,-1 2,-2 4,-2zm-1008 0c3,1 5,2 5,3 -3,1 -5,1 -7,1 -2,0 -2,-2 -2,-2 0,-1 2,-1 4,-2zm691 -22c4,0 6,1 8,3 -2,0 -4,0 -8,1 0,0 -2,-1 -2,-3l2 -1zm-510 -49c0,1 0,1 -2,2 -2,0 -4,-1 -4,-2l4 -2c0,0 4,1 2,2zm2 52c-2,0 -4,0 -4,-3l6 0 0 3 -2 0zm-168 63c2,1 6,1 9,1l0 1c0,1 0,1 -3,1l-6 -3c0,1 -2,2 -2,3l-4 0 0 -1c0,0 2,0 2,-1 2,0 2,0 4,-1zm418 -132c4,0 6,1 8,2 0,1 2,2 2,3 -2,1 -2,1 -2,0l0 -3 -8 -2zm-164 41l0 -3c2,0 2,1 2,1l0 2 -2 0zm-141 17c-2,1 -2,1 -2,2l-2 -1c0,0 2,0 2,-1l2 0zm-119 48c0,0 0,1 -2,1l0 -2 2 0c2,0 2,1 0,1zm688 -50c0,0 2,0 2,1l-4 0 2 -1zm-461 16c2,0 2,0 2,1l-2 0 0 -1zm193 -71c-2,0 -2,0 0,-1 0,0 0,-1 2,-1l-2 1 0 1zm294 52c2,0 2,2 2,2l-2 -2zm-185 -7c2,0 0,1 0,1l0 -1zm366 -111c2,0 4,-3 7,-3 2,-3 4,0 6,3l0 14c-2,3 -2,3 -4,3l-19 0 0 -3c-2,0 -2,-3 0,-3 2,-6 6,-9 10,-11zm-82 63c0,3 3,6 3,6 -3,12 -5,23 -3,35 0,3 0,6 -2,6l-2 0c-4,-3 -6,-6 -6,-12l6 -32c0,0 0,-3 2,-3l2 0zm-382 -66c2,0 5,0 7,3l6 14c0,0 0,3 -2,3 -2,3 -4,3 -4,3 -7,-3 -11,-9 -15,-15 0,-3 2,-5 2,-8l6 0zm433 -23c2,0 4,0 4,2 2,6 2,15 -2,21 0,0 -2,0 -2,-3l-2 0 0 -18 2 -2zm-607 162l-4 0c-4,-3 -4,-6 -2,-12 2,-3 6,-6 8,-3 0,3 2,3 2,6l-4 9zm76 -15c-4,3 -9,3 -11,0l0 -6c2,-5 9,-3 13,3l0 3 -2 0zm132 -101c-2,-3 -4,-3 -6,-3l0 -6c0,-3 2,-3 4,-3 2,0 2,3 4,3l0 6c0,0 -2,0 -2,3zm411 35c3,0 3,2 3,5l-3 0c-4,3 -6,0 -8,-3l0 -2 8 0zm-189 55c3,-3 5,0 7,2 -2,0 -4,6 -7,3 0,0 -2,0 -2,-3 0,0 0,-2 2,-2zm-60 11c-3,-3 0,-6 2,-6l2 3c0,3 -2,3 -2,6l-2 -3zm50 3c0,0 0,3 -2,3l-2 -3 0 -3c2,0 2,0 4,3zm-225 -90c-2,3 -2,3 -4,0 0,0 2,0 2,-3l2 0 0 3zm393 26c0,0 0,3 -2,3 -2,-3 -2,-6 0,-6l2 3zm-372 -14c-2,0 -2,-3 -2,-3l4 0c0,3 -2,3 -2,3zm414 -55c-2,3 -2,0 -2,0l0 -3c2,0 2,0 2,3zm-321 176c-2,-2 0,-2 0,-2l2 0c0,0 -2,0 -2,2zm121 -2l3 -3c0,0 0,3 2,3l-5 0zm-100 -38l-2 0 0 -3 2 3zm1658 59l-2 0 0 -3 1 1 1 2zm60 -14c2,-4 4,0 6,3 -2,0 -4,6 -6,3 0,0 -2,0 -2,-3 0,0 0,-3 2,-3zm1 12c0,0 2,0 2,1l-4 0 2 -1zm25 -3c2,0 2,2 2,2l-2 -2zm-185 -8c2,0 0,1 0,1l0 -1zm-3734 -39c0,-3 -7,-3 -7,-3 -7,-3 -15,3 -7,6 7,3 14,0 14,-3zm-224 -234c-7,-3 -7,0 -7,0l0 3c0,0 0,-3 7,-3zm113 262c5,2 15,4 15,8 0,4 -5,6 -10,9l0 2 20 0c5,0 10,0 10,4 0,2 0,4 6,6 5,0 10,2 15,0l0 -4c5,0 0,-2 0,-2 -5,-11 0,-19 15,-27 15,-5 36,-7 46,-13 5,0 0,-2 0,-4 -5,0 -5,-2 -5,-2 -5,2 -5,2 -10,2 -11,0 -16,0 -21,-5 -10,-2 -15,-6 -25,-10 -5,0 -10,-2 -10,-2l-11 0c-5,2 -5,4 -5,4 0,4 5,6 11,11 0,2 -6,4 -16,4 0,0 -5,-2 -5,0 -5,0 -5,2 -5,2l15 10c0,0 0,3 -5,3l-30 4 5 0zm1028 -4c0,6 5,6 15,6 20,0 31,-4 41,-11 0,-2 -5,-4 -5,-4l-11 0c-5,2 -10,4 -20,0l0 -2c-5,0 -15,0 -15,2 -1,1 -2,2 -3,3 0,-8 0,-18 2,-33 -4,0 -2,-10 -6,-11 0,0 -4,0 -6,9 -4,0 -5,9 -3,20l11 19c0,1 0,1 0,2zm-1115 28c-8,-2 -14,1 -19,3l-3 -4c-6,3 -4,-4 5,-2 5,-3 9,1 17,3zm3219 14c0,0 5,2 8,-2l-5 -2 -3 4zm-130 -20c0,-2 7,-2 7,-2 7,-3 13,2 7,5 -7,2 -14,0 -14,-3zm203 -212c7,-2 7,0 7,0l0 3c0,0 0,-3 -7,-3zm16 111l0 -3c3,-3 7,-3 14,-1 3,1 7,4 3,6 -3,0 -3,1 -7,1l-10 -3zm17 52c-3,-3 -3,-6 0,-7l7 0c7,1 4,6 -3,9l-4 0 0 -2zm-62 39c8,-1 13,1 17,3l3 -3c5,2 3,-4 -4,-2 -5,-3 -8,1 -16,2zm1430 -21l0 3 2 -3 -2 0zm-174 -3c0,6 -3,11 0,14 2,3 2,3 5,3l2 0c3,-6 6,-11 6,-17 2,-6 2,-9 2,-15 0,-5 -2,-8 -2,-14 0,-3 -3,-6 -6,-3 0,0 -2,0 -2,3l-5 14 0 15zm347 23c0,0 -3,0 -3,3 6,5 11,8 19,5 7,0 15,-2 20,-5 3,0 3,-3 3,-3 0,-3 0,-6 -3,-6 -10,3 -23,6 -36,6zm75 -157c0,6 2,11 7,14l3 0c3,0 3,-3 3,-3 2,-8 -3,-14 -8,-17 0,-3 -3,0 -3,0 -2,0 -2,3 -2,6zm-26 76c-2,-3 -2,-3 -2,-5l0 -3c-3,3 -6,3 -6,3 0,5 -2,11 -2,14 0,6 2,9 2,6 3,0 6,0 6,-3 0,-3 0,-9 2,-12zm8 -56c2,3 5,6 7,6 3,-3 3,-6 3,-9 0,-3 -5,-3 -5,-3 -3,0 -3,3 -5,6zm-323 157c2,0 2,0 5,-3 0,-3 -3,-6 -5,-6l-5 6c0,0 2,6 5,3zm124 3c0,-3 0,-6 -5,-6l0 9 5 0 0 -3zm305 -140c2,3 2,9 2,12l3 0c2,0 2,0 2,-3l-7 -9c2,0 5,-3 7,-3l0 -5 -2 0c0,0 0,2 -3,2 0,3 0,3 -2,6zm-331 65c3,-3 3,-3 5,-3l-2 -3c0,0 0,3 -3,3l0 3zm268 -73c0,0 3,0 3,-3l-5 0 0 3c0,2 2,2 2,0zm-4662 -49c-1,4 -6,7 -6,7 2,15 3,30 -3,44 -1,3 -2,7 2,8l4 0c9,-2 13,-5 15,-12l-5 -41c0,0 1,-4 -3,-5l-4 -1zm740 49c-4,-1 -8,-2 -13,1l-15 16c0,0 0,4 4,4 3,5 7,5 7,5 13,-1 22,-7 31,-13 1,-3 -3,-8 -2,-11l-12 -2zm-69 17c5,-3 9,-2 13,-1l1 -8c1,-3 -3,-4 -7,-5 -4,0 -5,3 -9,2l-1 8c0,0 4,0 3,4zm-789 -98c-4,-1 -5,3 -5,7l4 0c7,5 12,3 16,0l1 -4 -16 -3zm346 133c-3,-4 -7,-1 -12,1 4,1 7,9 11,6 0,0 4,1 5,-3 0,0 0,-3 -4,-4zm113 35c5,-3 2,-7 -2,-8l-5 3c0,4 4,4 3,8l4 -3zm-96 -14c0,0 0,4 4,5l4 -3 1 -4c-4,0 -4,0 -9,2zm447 -34c3,4 3,4 8,2 0,0 -4,-1 -4,-5l-4 0 0 3zm-752 -102c0,0 0,4 4,4 4,-2 5,-6 1,-7l-5 3zm709 109c4,1 5,-2 5,-2l-8 -2c-1,4 3,4 3,4zm-433 74l-3 -4c0,0 -1,3 -5,3l8 1zm200 -12l4 1 1 -4 -5 3zm417 -109c2,10 9,22 17,23 0,0 5,-9 7,-18 2,-10 -2,-11 0,-21 -8,-1 -18,7 -24,16zm490 -71c0,0 -4,0 -5,9l8 2c5,-9 1,-10 -3,-11zm-1207 227l-3 0 2 -7 0 3 1 4zm87 -20c4,-7 5,1 7,10 -3,-1 -9,14 -10,6 0,0 -3,-1 -2,-8 0,0 2,-8 5,-8zm-215 -35c3,1 0,3 0,3l0 -3z"/>
 </g>
</svg>
