<?xml version="1.0" encoding="UTF-8"?>
<!DOCTYPE svg PUBLIC "-//W3C//DTD SVG 1.1//EN" "http://www.w3.org/Graphics/SVG/1.1/DTD/svg11.dtd">
<!-- Creator: CorelDRAW X7 -->
<svg xmlns="http://www.w3.org/2000/svg" xml:space="preserve" width="114.131mm" height="1.4392mm" version="1.1" style="shape-rendering:geometricPrecision; text-rendering:geometricPrecision; image-rendering:optimizeQuality; fill-rule:evenodd; clip-rule:evenodd"
viewBox="0 0 11413 144"
 xmlns:xlink="http://www.w3.org/1999/xlink">
 <defs>
  <style type="text/css">
   <![CDATA[
    .fil0 {fill:black;fill-opacity:0.149020}
   ]]>
  </style>
 </defs>
 <g id="Capa_x0020_1">
  <metadata id="CorelCorpID_0Corel-Layer"/>
  <path class="fil0" d="M-1 0l11415 0 0 144c-3435,-123 -7009,-129 -10703,-17 -32,-2 -69,-3 -114,0 -72,0 -145,3 -197,7 -133,3 -267,6 -401,10l0 -144zm361 51c0,4 26,4 26,4 0,0 27,0 27,-4 0,-4 26,-13 26,-17 0,-4 0,-4 -26,-8 -27,0 -53,4 -53,8l0 17zm501 -9c26,-8 26,-8 0,-12l0 12c0,5 -27,5 -53,9 -26,4 0,12 26,12 0,5 27,5 53,0 0,-8 -26,-12 -26,-21z"/>
 </g>
</svg>
